#tb 0: 1/44100
#media_type 0: audio
#codec_id 0: pcm_s16le
#sample_rate 0: 44100
#channel_layout_name 0: stereo
0,          0,          0,     4096,    16384, 0xaa1cd75d
0,       4096,       4096,     4096,    16384, 0x850ed54f
0,       8192,       8192,     4096,    16384, 0x2acae317
0,      12288,      12288,     4096,    16384, 0x4d7fe77f
0,      16384,      16384,     4096,    16384, 0xa339e679
0,      20480,      20480,     4096,    16384, 0x3dcee48b
0,      24576,      24576,     4096,    16384, 0xd958d2c3
0,      28672,      28672,     4096,    16384, 0x3c2bd659
0,      32768,      32768,     4096,    16384, 0xaa1cd75d
0,      36864,      36864,     4096,    16384, 0x850ed54f
0,      40960,      40960,     4096,    16384, 0xd2d30c1a
0,      45056,      45056,     4096,    16384, 0x47a5ed8b
0,      49152,      49152,     4096,    16384, 0x5946eb1b
0,      53248,      53248,     4096,    16384, 0x1573d5f3
0,      57344,      57344,     4096,    16384, 0x314a7035
0,      61440,      61440,     4096,    16384, 0x31a1087e
0,      65536,      65536,     4096,    16384, 0x4f98e2dd
0,      69632,      69632,     4096,    16384, 0x53b9d2d7
0,      73728,      73728,     4096,    16384, 0x4d5d9fdd
0,      77824,      77824,     4096,    16384, 0x3132d169
0,      81920,      81920,     4096,    16384, 0xf86664c7
0,      86016,      86016,     4096,    16384, 0xf3a5adfd
0,      90112,      90112,     4096,    16384, 0xc76a40f8
0,      94208,      94208,     4096,    16384, 0x6981a699
0,      98304,      98304,     4096,    16384, 0x2126dcf5
0,     102400,     102400,     4096,    16384, 0xe9b9c8db
0,     106496,     106496,     4096,    16384, 0x679fe09d
0,     110592,     110592,     4096,    16384, 0xb410c407
0,     114688,     114688,     4096,    16384, 0x8ba32fa8
0,     118784,     118784,     4096,    16384, 0x179a9f4f
0,     122880,     122880,     4096,    16384, 0x6ae75c7a
0,     126976,     126976,     4096,    16384, 0xb24eaeb1
0,     131072,     131072,     4096,    16384, 0x1300f0e1
0,     135168,     135168,     4096,    16384, 0x8034a2af
0,     139264,     139264,     4096,    16384, 0xaf3f098e
0,     143360,     143360,     4096,    16384, 0x384ae04a
0,     147456,     147456,     4096,    16384, 0xf57ee8c3
0,     151552,     151552,     4096,    16384, 0x5307bad7
0,     155648,     155648,     4096,    16384, 0xe7b81a96
0,     159744,     159744,     4096,    16384, 0x3c2dc5bb
0,     163840,     163840,     4096,    16384, 0x05dedcda
0,     167936,     167936,     4096,    16384, 0x9a3feabf
0,     172032,     172032,     4096,    16384, 0xd9a0f408
0,     176128,     176128,     4096,    16384, 0x01b390ab
0,     180224,     180224,     4096,    16384, 0xbf4cf3b9
0,     184320,     184320,     4096,    16384, 0x9e9723c3
0,     188416,     188416,     4096,    16384, 0x13c5b5b1
0,     192512,     192512,     4096,    16384, 0x8645352a
0,     196608,     196608,     4096,    16384, 0x5307c51b
0,     200704,     200704,     4096,    16384, 0x5a3a305d
0,     204800,     204800,     4096,    16384, 0xff85f730
0,     208896,     208896,     4096,    16384, 0xee794f38
0,     212992,     212992,     4096,    16384, 0xbf4cf3b9
0,     217088,     217088,     4096,    16384, 0x9e9723c3
0,     221184,     221184,     4096,    16384, 0x13c5b5b1
0,     225280,     225280,     4096,    16384, 0x8645352a
0,     229376,     229376,     4096,    16384, 0x5307c51b
0,     233472,     233472,     4096,    16384, 0x5a3a305d
0,     237568,     237568,     4096,    16384, 0xff85f730
0,     241664,     241664,     4096,    16384, 0xee794f38
0,     245760,     245760,     4096,    16384, 0xbf4cf3b9
0,     249856,     249856,     4096,    16384, 0x9e9723c3
0,     253952,     253952,     4096,    16384, 0x13c5b5b1
0,     258048,     258048,     4096,    16384, 0x8645352a
0,     262144,     262144,     2456,     9824, 0x8998f9c9
